# xmcd
#
# Track frame offsets: 
#        150
#        16428
#        30107
#        56421
#        81450
#        94812
#        112062
#        128356
#        141722
#        154863
#        170284
#        184843
#        197354
#        208770
#        222966
#        239765
#        257135
#        272018
#        287973
#        300459
#
# Disc length: 4140 seconds
#
# Revision: 0
# Processed by: cddbd v1.5.2PL0 Copyright (c) Steve Scherf et al.
# Submitted via: ExactAudioCopy v0.99pb4
#
DISCID=25102a14
DTITLE=Various Artist - Radio 2 - De Topcollectie - Vlaamse klassiekers - CD 
DTITLE=1
DYEAR=2015
DGENRE=Chanson
TTITLE0=De Kreuners - Verliefd Op Chris Lomme
TTITLE1=Ann Christy - Gelukkig Zijn
TTITLE2=Wim De Craene - Tim
TTITLE3=Raymond Van Het Groenewoud - Twee Meisjes
TTITLE4=Bobbejaan Schoepen - De Lichtjes Van De Schelde
TTITLE5=Johan Verminnen - Mooie Dagen
TTITLE6=Mama's Jasje - Als De Dag Van Toen
TTITLE7=Jimmy Frey - Rozen Voor Sandra
TTITLE8=Ingeborg - Door De Wind
TTITLE9=Isabelle A - Hé, Lekker Beest
TTITLE10=Radeis - Fietsen Op De Heide
TTITLE11=Urbanus - 1-2-3 Rikke Tikke Tik
TTITLE12=Kris De Bruyne - Amsterdam
TTITLE13=Bobby Prins - Sancta Maria
TTITLE14=Laura Lynn - Je Hebt Me 1000 Maal Belogen
TTITLE15=Biezebaaze - Loetsebollekezoetse
TTITLE16=Hans De Booy - Een Vrouw Zoals Jij
TTITLE17=Udo - Ik Mis Je Zo
TTITLE18=Louis Neefs - Jennifer Jennings
TTITLE19=De Nieuwe Snaar - De Zwemmer
EXTD=
EXTT0=
EXTT1=
EXTT2=
EXTT3=
EXTT4=
EXTT5=
EXTT6=
EXTT7=
EXTT8=
EXTT9=
EXTT10=
EXTT11=
EXTT12=
EXTT13=
EXTT14=
EXTT15=
EXTT16=
EXTT17=
EXTT18=
EXTT19=
PLAYORDER=
